<svg id="SvgjsSvg1014" width="288" height="288" xmlns="http://www.w3.org/2000/svg" version="1.1" xmlns:xlink="http://www.w3.org/1999/xlink" xmlns:svgjs="http://svgjs.com/svgjs"><defs id="SvgjsDefs1015"></defs><g id="SvgjsG1016"><svg xmlns="http://www.w3.org/2000/svg" data-name="Layer 1" viewBox="0 0 64 64" width="288" height="288"><path fill="none" stroke="#ffffff" stroke-linecap="round" stroke-linejoin="round" stroke-width="3" d="M46.37,34.72h0A12.49,12.49,0,0,1,58.86,47.21v0a0,0,0,0,1,0,0h-25a0,0,0,0,1,0,0v0A12.49,12.49,0,0,1,46.37,34.72Z" class="colorStroke222 svgStroke"></path><path fill="none" stroke="#ffffff" stroke-linecap="round" stroke-linejoin="round" stroke-width="3" d="M46.37,47.21h0A12.49,12.49,0,0,1,58.86,59.7v0a0,0,0,0,1,0,0h-25a0,0,0,0,1,0,0v0A12.49,12.49,0,0,1,46.37,47.21Z" transform="rotate(-180 46.37 53.46)" class="colorStroke222 svgStroke"></path><path fill="none" stroke="#ffffff" stroke-linecap="round" stroke-linejoin="round" stroke-width="3" d="M5.92,23h21a0,0,0,0,1,0,0v13.1a10.5,10.5,0,0,1-10.5,10.5h0a10.5,10.5,0,0,1-10.5-10.5V23a0,0,0,0,1,0,0Z" transform="rotate(36.54 16.413 34.808)" class="colorStroke222 svgStroke"></path><path fill="none" stroke="#ffffff" stroke-linecap="round" stroke-linejoin="round" stroke-width="3" d="M20,4H41a0,0,0,0,1,0,0v13.1a10.5,10.5,0,0,1-10.5,10.5h0A10.5,10.5,0,0,1,20,17.14V4A0,0,0,0,1,20,4Z" transform="rotate(-143.46 30.47 15.841)" class="colorStroke222 svgStroke"></path></svg></g></svg>